<?xml version="1.0" standalone="no"?>
<!DOCTYPE svg PUBLIC "-//W3C//DTD SVG 20010904//EN"
 "http://www.w3.org/TR/2001/REC-SVG-20010904/DTD/svg10.dtd">
<svg version="1.0" xmlns="http://www.w3.org/2000/svg"
 width="179.000000pt" height="179.000000pt" viewBox="0 0 179.000000 179.000000"
 preserveAspectRatio="xMidYMid meet">
<metadata>
Created by potrace 1.11, written by Peter Selinger 2001-2013
</metadata>
<g transform="translate(0.000000,179.000000) scale(0.100000,-0.100000)"
fill="#000000" stroke="none">
<path d="M857 1708 c-13 -24 -41 -77 -61 -118 -20 -41 -62 -121 -93 -177 -60
-110 -66 -115 -158 -127 -35 -5 -81 -13 -150 -26 -27 -6 -67 -12 -87 -15 -52
-7 -99 -14 -123 -19 -11 -3 -25 -5 -31 -5 -7 -1 -15 -8 -18 -16 -4 -11 33 -56
117 -141 192 -198 211 -219 223 -239 10 -17 5 -72 -22 -235 -3 -19 -8 -48 -10
-65 -3 -16 -7 -39 -8 -50 -2 -11 -7 -36 -10 -55 -21 -118 -10 -135 60 -97 17
9 34 13 38 10 3 -4 6 -1 6 5 0 7 7 12 15 12 8 0 15 5 15 11 0 6 6 9 14 6 8 -3
17 1 20 10 4 9 14 13 26 10 11 -3 23 0 27 5 3 7 1 8 -5 4 -7 -4 -12 -5 -12 -1
0 7 52 29 63 27 4 -1 7 3 7 10 0 6 3 9 6 5 3 -3 22 3 41 14 19 11 39 16 45 13
6 -4 8 -3 5 3 -8 13 20 26 35 16 6 -3 8 -1 5 4 -8 12 20 26 34 17 5 -3 9 0 9
5 0 6 5 11 11 11 5 0 7 -6 3 -12 -6 -10 -5 -10 7 -1 11 9 18 8 33 -3 10 -7 23
-11 27 -8 5 3 9 0 9 -6 0 -6 4 -9 9 -5 5 3 16 -2 24 -10 9 -8 20 -15 26 -15
14 0 54 -22 63 -35 4 -5 8 -6 8 -2 0 7 97 -39 110 -53 3 -3 12 -6 20 -8 8 -2
17 -8 18 -13 2 -5 8 -7 13 -3 5 3 9 0 9 -6 0 -6 5 -8 10 -5 5 3 10 1 10 -6 0
-7 3 -9 6 -6 4 3 16 1 28 -5 28 -16 46 -18 46 -7 0 6 5 7 12 3 7 -5 8 -3 3 6
-5 8 -10 32 -12 54 -3 23 -5 50 -6 61 -2 11 -6 26 -10 33 -5 7 -3 12 5 12 10
0 10 2 0 8 -6 5 -13 32 -15 60 -1 29 -4 52 -7 52 -3 0 -7 19 -9 43 -5 60 -9
92 -11 92 -8 0 -6 84 3 100 12 22 101 115 111 115 4 0 5 -4 1 -9 -3 -5 -1 -12
4 -16 6 -3 8 4 6 17 -4 16 12 37 63 88 116 115 152 158 146 175 -3 8 -15 15
-25 15 -10 0 -19 3 -19 8 0 4 -15 7 -32 7 -18 1 -53 4 -78 8 -25 5 -58 10 -75
13 -38 6 -70 12 -70 14 0 1 -16 3 -35 5 -40 4 -81 11 -125 21 -30 7 -65 35
-65 53 0 5 -3 11 -7 13 -5 2 -19 23 -31 48 -108 207 -166 317 -175 328 -17 22
-35 13 -60 -30z"/>
<path d="M1429 1713 c0 -5 -2 -15 -4 -23 -2 -8 -6 -33 -10 -55 -4 -22 -11 -45
-16 -51 -5 -6 -6 -14 -2 -18 4 -4 -5 -5 -20 -2 -16 3 -25 1 -22 -5 4 -5 11 -7
16 -4 5 4 9 3 9 0 0 -10 -24 -30 -40 -34 -8 -2 -37 -9 -65 -16 -35 -9 -42 -13
-25 -15 52 -4 85 -12 91 -22 4 -6 13 -7 20 -2 11 6 12 5 2 -8 -17 -19 -4 -32
15 -15 13 10 15 9 9 -5 -4 -13 -1 -18 11 -18 13 0 14 -2 3 -9 -10 -7 -10 -10
-1 -13 7 -2 14 -17 15 -33 2 -17 4 -32 5 -35 1 -3 1 -15 1 -27 -1 -11 2 -24 7
-27 5 -3 8 10 7 29 0 19 2 35 5 35 3 0 7 15 8 33 1 17 9 37 17 43 8 6 12 14 8
17 -3 4 1 7 10 7 9 0 17 7 17 16 0 8 5 12 10 9 6 -4 7 -11 4 -17 -4 -7 -2 -8
5 -4 6 4 9 12 6 17 -7 11 16 21 54 25 14 1 28 3 31 4 3 1 9 1 15 0 5 -1 7 2 3
6 -5 4 -23 8 -42 10 -61 4 -142 53 -115 70 7 4 9 3 5 -4 -3 -6 -2 -13 3 -16
14 -9 7 22 -9 37 -10 9 -11 9 -6 0 4 -7 2 -13 -3 -13 -6 0 -11 14 -11 30 0 17
-4 30 -9 30 -4 0 -7 18 -5 40 2 22 1 40 -2 40 -2 0 -4 -3 -5 -7z"/>
<path d="M1617 993 c-4 -3 -7 -16 -7 -27 -1 -33 -23 -61 -50 -64 -32 -5 -57
-27 -41 -37 6 -3 10 -3 9 2 -3 9 5 13 26 13 20 0 48 -29 40 -42 -4 -7 -2 -8 4
-4 8 5 12 0 12 -13 0 -11 5 -23 12 -27 6 -4 8 -3 5 3 -9 14 13 74 24 67 5 -3
9 0 9 6 0 6 4 9 9 6 4 -3 17 1 27 9 10 9 15 15 9 14 -25 -3 -36 2 -29 14 5 7
1 7 -12 -3 -10 -8 -16 -11 -12 -6 3 4 -2 16 -12 26 -10 10 -16 29 -15 44 3 28
2 30 -8 19z"/>
<path d="M1345 710 c-3 -6 1 -7 9 -4 18 7 21 14 7 14 -6 0 -13 -4 -16 -10z"/>
<path d="M222 605 c-1 -14 2 -25 6 -25 5 0 8 9 7 20 -2 29 -10 33 -13 5z"/>
<path d="M213 538 c1 -20 -4 -32 -11 -31 -6 2 -9 -6 -7 -17 2 -11 -1 -23 -7
-26 -7 -4 -8 -2 -4 4 4 7 5 12 1 12 -3 0 -10 -12 -16 -26 -5 -15 -12 -24 -16
-20 -3 3 -12 1 -19 -5 -8 -6 -21 -9 -29 -5 -8 3 -15 0 -15 -5 0 -6 -9 -9 -19
-6 -10 2 -25 1 -32 -4 -14 -9 -2 -12 44 -12 9 0 17 -3 17 -8 0 -5 6 -6 13 -4
15 6 30 -4 46 -30 l13 -20 -6 20 c-6 19 -6 19 9 1 8 -10 12 -23 9 -27 -3 -5 2
-9 12 -9 14 0 15 -2 3 -17 -10 -11 -10 -14 -1 -9 12 7 15 0 15 -37 0 -9 3 -17
7 -17 3 0 4 -15 2 -33 -3 -17 -1 -29 2 -26 6 6 17 61 19 96 0 7 7 15 14 17 10
4 11 11 4 25 -8 14 -7 20 4 24 9 4 12 1 8 -9 -3 -7 0 -14 7 -14 6 0 9 3 7 8
-8 12 12 54 22 47 5 -3 12 -1 16 5 4 6 11 8 16 5 5 -4 9 -2 9 4 0 5 8 8 18 6
10 -2 25 1 33 6 8 5 10 9 4 10 -5 0 -19 3 -30 6 -11 2 -30 5 -42 6 -13 0 -23
5 -23 10 0 4 -6 5 -12 1 -8 -5 -7 0 2 11 12 15 12 17 1 10 -11 -6 -13 -4 -9 7
4 8 1 15 -7 15 -7 0 -11 -7 -8 -16 4 -14 3 -14 -5 -1 -6 8 -8 18 -6 22 3 5 -2
11 -11 14 -13 6 -14 8 -3 15 10 7 11 9 0 9 -7 0 -11 4 -7 9 3 5 1 12 -5 16 -6
4 -8 11 -5 16 4 5 0 9 -8 9 -10 0 -14 -11 -14 -32z"/>
<path d="M1115 399 c-4 -6 -5 -12 -2 -15 2 -3 7 2 10 11 7 17 1 20 -8 4z"/>
<path d="M300 356 c0 -2 9 -6 20 -9 11 -3 18 -1 14 4 -5 9 -34 13 -34 5z"/>
<path d="M443 223 c0 -35 -3 -44 -12 -39 -5 3 -8 -1 -7 -10 1 -18 -16 -30 -58
-39 -33 -7 -30 -14 7 -17 15 -1 29 -8 32 -16 3 -7 10 -10 16 -6 8 4 9 3 5 -4
-4 -7 -2 -12 4 -12 7 0 10 -7 6 -15 -3 -8 -1 -15 4 -15 6 0 9 -3 9 -7 -6 -36
5 -38 14 -3 10 39 18 48 56 67 55 28 57 30 21 27 -22 -1 -30 2 -30 14 0 15 -2
15 -10 2 -8 -13 -10 -12 -10 3 0 9 -4 17 -9 17 -5 0 -12 16 -15 35 -7 36 -23
49 -23 18z"/>
</g>
</svg>
